<?xml version="1.0" standalone="no"?>
<!DOCTYPE svg PUBLIC "-//W3C//DTD SVG 20010904//EN"
 "http://www.w3.org/TR/2001/REC-SVG-20010904/DTD/svg10.dtd">
<svg version="1.0" xmlns="http://www.w3.org/2000/svg"
 width="1048.000000pt" height="660.000000pt" viewBox="0 0 1048.000000 660.000000"
 preserveAspectRatio="xMidYMid meet">

<g transform="translate(0.000000,660.000000) scale(0.100000,-0.100000)"
fill="#000000" stroke="none">
<path d="M4590 6333 c0 -44 -3 -54 -12 -45 -20 20 -75 14 -98 -10 -32 -35 -31
-130 2 -165 24 -25 76 -31 96 -11 9 9 12 9 12 0 0 -7 11 -12 25 -12 l25 0 0
150 0 150 -25 0 c-24 0 -25 -3 -25 -57z m-11 -87 c18 -21 10 -97 -11 -110 -29
-18 -53 4 -56 53 -3 46 10 71 38 71 10 0 23 -6 29 -14z"/>
<path d="M3315 6371 c-44 -19 -60 -50 -63 -125 -6 -109 24 -156 99 -156 22 0
42 -9 59 -25 24 -23 28 -24 40 -10 11 13 10 19 -8 38 -18 20 -19 24 -6 41 9
13 14 46 14 98 0 71 -2 80 -27 108 -30 32 -75 45 -108 31z m75 -60 c17 -32 13
-142 -7 -163 -40 -44 -83 -4 -83 79 0 76 13 103 49 103 20 0 34 -7 41 -19z"/>
<path d="M4035 6371 c-44 -19 -60 -50 -63 -125 -6 -108 24 -156 97 -156 55 0
101 37 101 80 0 20 -45 10 -55 -12 -11 -25 -50 -34 -75 -19 -18 12 -27 139
-11 168 6 11 19 23 30 26 23 6 61 -18 61 -39 0 -8 10 -14 25 -14 58 0 7 87
-55 95 -19 3 -44 1 -55 -4z"/>
<path d="M5233 6370 c-57 -24 -83 -144 -49 -225 19 -44 48 -58 107 -53 67 7
79 20 79 84 l0 54 -50 0 c-37 0 -50 -4 -50 -14 0 -8 10 -16 23 -18 17 -2 22
-10 22 -33 0 -28 -3 -30 -35 -30 -27 0 -37 6 -47 25 -16 31 -17 111 -2 144 18
39 73 42 84 5 8 -23 55 -27 55 -5 0 48 -85 88 -137 66z"/>
<path d="M3500 6230 l0 -140 25 0 c24 0 25 3 25 56 0 52 1 55 23 52 15 -2 29
-18 47 -55 21 -44 29 -53 53 -53 15 0 27 2 27 5 0 2 -12 29 -26 58 l-27 54 22
22 c14 14 21 33 21 60 0 59 -33 81 -121 81 l-69 0 0 -140z m128 88 c7 -7 12
-21 12 -33 0 -30 -19 -45 -57 -45 -32 0 -33 1 -33 45 0 44 1 45 33 45 18 0 38
-5 45 -12z"/>
<path d="M6670 6325 c0 -20 -5 -25 -25 -25 -18 0 -25 -5 -25 -20 0 -15 7 -20
25 -20 24 0 25 -2 25 -68 0 -55 4 -72 19 -86 25 -23 104 -19 109 6 2 13 -5 17
-35 20 l-38 3 -3 62 -3 62 38 3 c27 2 39 8 41 21 3 14 -4 17 -37 17 -37 0 -41
2 -41 25 0 20 -5 25 -25 25 -20 0 -25 -5 -25 -25z"/>
<path d="M4245 6276 c-46 -46 -42 -136 9 -171 32 -23 90 -19 123 9 25 21 28
31 28 81 0 50 -3 60 -28 81 -38 33 -99 33 -132 0z m105 -47 c23 -54 -17 -118
-57 -93 -49 30 -36 124 17 124 21 0 30 -7 40 -31z"/>
<path d="M4728 6277 c-34 -31 -44 -87 -23 -131 25 -52 90 -71 150 -44 28 12
29 16 15 38 -7 12 -12 12 -22 2 -24 -24 -98 -7 -98 23 0 12 15 15 70 15 68 0
70 1 70 25 0 33 -25 81 -45 89 -37 14 -92 6 -117 -17z m102 -32 c17 -21 4 -35
-35 -35 -19 0 -37 5 -40 10 -10 16 14 40 40 40 12 0 28 -7 35 -15z"/>
<path d="M5448 6277 c-34 -31 -44 -87 -23 -131 25 -52 90 -71 150 -44 28 12
29 16 15 38 -7 12 -12 12 -22 2 -24 -24 -98 -7 -98 23 0 12 15 15 70 15 68 0
70 1 70 25 0 33 -25 81 -45 89 -37 14 -92 6 -117 -17z m102 -32 c17 -21 4 -35
-35 -35 -19 0 -37 5 -40 10 -10 16 14 40 40 40 12 0 28 -7 35 -15z"/>
<path d="M5660 6195 c0 -105 0 -105 25 -105 24 0 24 2 27 83 l3 82 35 0 35 0
3 -82 3 -83 29 0 30 0 0 63 c0 70 -13 127 -32 139 -18 11 -66 10 -89 -2 -13
-7 -19 -7 -19 0 0 5 -11 10 -25 10 l-25 0 0 -105z"/>
<path d="M5928 6277 c-34 -31 -44 -87 -23 -131 25 -52 90 -71 150 -44 28 12
29 16 15 38 -7 12 -12 12 -22 2 -24 -24 -98 -7 -98 23 0 12 15 15 70 15 68 0
70 1 70 25 0 33 -25 81 -45 89 -37 14 -92 6 -117 -17z m102 -32 c17 -21 4 -35
-35 -35 -19 0 -37 5 -40 10 -10 16 14 40 40 40 12 0 28 -7 35 -15z"/>
<path d="M6170 6195 l0 -105 25 0 c24 0 25 2 25 70 0 77 10 90 69 90 17 0 31
4 31 9 0 5 3 16 6 25 9 22 -63 22 -88 -1 -17 -15 -18 -15 -18 0 0 11 -8 17
-25 17 l-25 0 0 -105z"/>
<path d="M6400 6280 c-11 -11 -20 -24 -20 -30 0 -15 41 -12 60 5 21 19 60 9
60 -16 0 -14 -7 -19 -25 -19 -14 0 -41 -7 -60 -14 -30 -13 -35 -20 -35 -50 0
-19 7 -42 16 -50 18 -18 66 -21 95 -6 13 7 19 7 19 0 0 -5 12 -10 26 -10 l26
0 -3 86 c-4 76 -7 88 -28 105 -32 26 -104 26 -131 -1z m98 -117 c-2 -23 -8
-29 -35 -31 -29 -3 -33 0 -33 22 0 26 11 34 48 35 20 1 23 -3 20 -26z"/>
<path d="M6887 6280 c-48 -38 -44 -140 6 -175 34 -24 94 -19 122 9 70 70 29
186 -65 186 -22 0 -48 -8 -63 -20z m103 -51 c23 -54 -17 -118 -57 -93 -49 30
-36 124 17 124 21 0 30 -7 40 -31z"/>
<path d="M7130 6195 l0 -105 25 0 c24 0 25 2 25 70 0 77 10 90 69 90 17 0 31
4 31 9 0 5 3 16 6 25 9 22 -63 22 -88 -1 -17 -15 -18 -15 -18 0 0 11 -8 17
-25 17 l-25 0 0 -105z"/>
<path d="M3770 6220 c0 -18 7 -20 80 -20 73 0 80 2 80 20 0 18 -7 20 -80 20
-73 0 -80 -2 -80 -20z"/>
<path d="M2200 5950 c0 -5 9 -10 20 -10 18 0 20 -7 20 -61 0 -52 -3 -62 -20
-66 -37 -10 -20 -23 30 -23 48 0 66 12 35 24 -11 4 -15 22 -15 76 l0 70 -35 0
c-19 0 -35 -4 -35 -10z"/>
<path d="M2620 5875 c0 -67 3 -85 14 -85 11 0 16 14 18 48 3 39 6 47 23 47 17
0 20 -8 23 -47 2 -34 7 -48 18 -48 10 0 14 12 14 43 0 56 -18 82 -53 75 -24
-5 -27 -2 -27 23 0 19 -5 29 -15 29 -12 0 -15 -16 -15 -85z"/>
<path d="M4065 5950 c-3 -6 1 -13 10 -16 19 -8 30 0 20 15 -8 14 -22 14 -30 1z"/>
<path d="M4729 5945 c-5 -64 1 -155 10 -155 6 0 11 21 13 48 3 39 6 47 23 47
17 0 20 -8 23 -47 2 -34 7 -48 18 -48 10 0 14 13 14 48 0 63 -10 76 -49 69
-29 -6 -31 -5 -31 23 0 30 -19 43 -21 15z"/>
<path d="M1350 5946 c0 -2 11 -28 25 -58 14 -29 25 -63 25 -75 0 -13 5 -23 10
-23 6 0 10 11 10 25 0 14 11 48 25 75 29 57 30 60 11 60 -7 0 -19 -13 -26 -30
-7 -16 -16 -30 -20 -30 -4 0 -13 14 -20 30 -7 17 -19 30 -26 30 -8 0 -14 -2
-14 -4z"/>
<path d="M5150 5882 c0 -74 10 -92 50 -92 40 0 50 18 50 92 0 53 -3 68 -15 68
-11 0 -15 -16 -17 -67 -2 -53 -6 -68 -18 -68 -10 0 -16 12 -18 35 -8 115 -32
138 -32 32z"/>
<path d="M5290 5870 c0 -64 3 -80 15 -80 10 0 15 10 15 30 0 19 5 30 14 30 7
0 19 -13 26 -30 7 -16 19 -30 26 -30 18 0 17 4 -1 39 -13 26 -13 30 0 41 38
32 4 80 -56 80 l-39 0 0 -80z m77 44 c4 -11 -1 -22 -12 -30 -28 -21 -35 -17
-35 16 0 23 4 30 20 30 11 0 23 -7 27 -16z"/>
<path d="M5430 5870 l0 -80 50 0 c28 0 50 5 50 10 0 6 -16 10 -35 10 l-35 0 0
70 c0 56 -3 70 -15 70 -12 0 -15 -16 -15 -80z"/>
<path d="M8946 5928 c-33 -47 -10 -138 35 -138 10 0 28 -5 39 -12 22 -14 38
-4 22 15 -7 8 -7 18 -2 27 15 23 12 83 -6 108 -10 14 -26 22 -44 22 -18 0 -34
-8 -44 -22z m68 -14 c11 -29 6 -81 -9 -94 -22 -18 -45 5 -45 45 0 46 9 65 30
65 10 0 21 -7 24 -16z"/>
<path d="M9080 5870 c0 -64 3 -80 15 -80 10 0 15 10 15 30 0 19 5 30 14 30 7
0 19 -13 26 -30 7 -16 19 -30 26 -30 18 0 17 4 -1 39 -13 26 -13 30 0 41 18
15 20 51 3 68 -7 7 -31 12 -55 12 l-43 0 0 -80z m78 33 c2 -13 -1 -23 -6 -23
-6 0 -17 -3 -26 -6 -13 -5 -16 1 -16 26 0 27 3 31 23 28 14 -2 23 -11 25 -25z"/>
<path d="M3350 5925 c0 -8 -7 -15 -15 -15 -8 0 -15 -4 -15 -10 0 -5 7 -10 15
-10 11 0 15 -11 15 -38 0 -45 14 -62 52 -62 33 0 38 17 6 22 -19 2 -24 10 -26
41 -3 32 0 37 17 37 12 0 21 5 21 10 0 6 -9 10 -20 10 -11 0 -20 7 -20 15 0 8
-7 15 -15 15 -8 0 -15 -7 -15 -15z"/>
<path d="M4190 5926 c0 -8 -6 -17 -12 -20 -10 -5 -10 -7 0 -12 6 -3 12 -19 12
-35 0 -47 17 -69 50 -69 35 0 41 17 8 22 -19 2 -24 10 -26 41 -3 34 -1 37 22
37 14 0 26 5 26 10 0 6 -11 10 -25 10 -16 0 -25 6 -25 15 0 8 -7 15 -15 15 -8
0 -15 -6 -15 -14z"/>
<path d="M4610 5926 c0 -8 -6 -17 -12 -20 -10 -5 -10 -7 0 -12 6 -3 12 -22 12
-43 0 -44 14 -61 52 -61 33 0 38 17 6 22 -19 2 -24 10 -26 41 -3 34 -1 37 22
37 14 0 26 5 26 10 0 6 -11 10 -25 10 -16 0 -25 6 -25 15 0 8 -7 15 -15 15 -8
0 -15 -6 -15 -14z"/>
<path d="M6720 5925 c0 -8 -7 -15 -15 -15 -8 0 -15 -4 -15 -10 0 -5 7 -10 15
-10 11 0 15 -11 15 -38 0 -45 14 -62 52 -62 33 0 38 17 6 22 -19 2 -24 10 -26
41 -3 32 0 37 17 37 12 0 21 5 21 10 0 6 -9 10 -20 10 -11 0 -20 7 -20 15 0 8
-7 15 -15 15 -8 0 -15 -7 -15 -15z"/>
<path d="M7000 5925 c0 -8 -7 -15 -15 -15 -8 0 -15 -4 -15 -10 0 -5 7 -10 15
-10 11 0 15 -11 15 -38 0 -45 14 -62 52 -62 33 0 38 17 6 22 -19 2 -24 10 -26
41 -3 32 0 37 17 37 12 0 21 5 21 10 0 6 -9 10 -20 10 -11 0 -20 7 -20 15 0 8
-7 15 -15 15 -8 0 -15 -7 -15 -15z"/>
<path d="M8260 5926 c0 -8 -6 -17 -12 -20 -10 -5 -10 -7 0 -12 6 -3 12 -19 12
-35 0 -47 17 -69 50 -69 35 0 41 17 8 22 -19 2 -24 10 -26 41 -3 34 -1 37 22
37 14 0 26 5 26 10 0 6 -11 10 -25 10 -16 0 -25 6 -25 15 0 8 -7 15 -15 15 -8
0 -15 -6 -15 -14z"/>
<path d="M8540 5926 c0 -8 -6 -17 -12 -20 -10 -5 -10 -7 0 -12 6 -3 12 -19 12
-35 0 -47 17 -69 50 -69 35 0 41 17 8 22 -19 2 -24 10 -26 41 -3 34 -1 37 22
37 14 0 26 5 26 10 0 6 -11 10 -25 10 -16 0 -25 6 -25 15 0 8 -7 15 -15 15 -8
0 -15 -6 -15 -14z"/>
<path d="M1504 5884 c-33 -49 9 -107 63 -88 23 8 29 16 31 47 4 47 -11 67 -49
67 -20 0 -34 -8 -45 -26z m66 -14 c11 -20 -1 -60 -18 -60 -24 0 -43 55 -25 73
12 13 32 7 43 -13z"/>
<path d="M1640 5861 c0 -57 12 -70 63 -68 l37 1 0 58 c0 44 -4 58 -14 58 -11
0 -16 -14 -18 -47 -2 -35 -7 -48 -18 -48 -11 0 -16 13 -18 48 -2 33 -7 47 -18
47 -10 0 -14 -13 -14 -49z"/>
<path d="M1926 5888 c-9 -12 -16 -29 -16 -38 0 -33 31 -61 63 -58 70 7 70 109
0 116 -23 2 -35 -3 -47 -20z m62 -10 c16 -16 15 -30 -2 -53 -12 -16 -16 -17
-30 -6 -9 7 -16 21 -16 30 0 17 18 41 30 41 3 0 11 -5 18 -12z"/>
<path d="M2060 5848 c0 -45 3 -58 15 -58 11 0 15 12 15 50 0 42 3 50 19 50 20
0 31 -25 31 -72 0 -16 5 -28 10 -28 7 0 10 22 8 58 l-3 57 -47 1 -48 1 0 -59z"/>
<path d="M2330 5905 c0 -4 7 -19 15 -35 34 -66 36 -78 13 -100 -24 -22 -19
-35 9 -26 12 4 32 35 51 79 36 82 37 87 18 87 -8 0 -21 -19 -28 -42 l-14 -42
-17 42 c-9 23 -24 42 -32 42 -8 0 -15 -2 -15 -5z"/>
<path d="M2769 5894 c-11 -14 -9 -15 24 -9 30 6 37 4 37 -9 0 -10 -9 -16 -22
-16 -34 0 -50 -15 -46 -41 3 -21 8 -24 51 -25 l47 -1 0 47 c0 25 -5 51 -12 58
-17 17 -63 15 -79 -4z m61 -59 c0 -16 -27 -32 -37 -22 -3 4 -3 13 0 22 8 20
37 20 37 0z"/>
<path d="M2900 5903 c0 -5 9 -30 19 -58 25 -65 44 -69 64 -13 8 24 18 51 22
61 5 12 2 17 -9 17 -9 0 -19 -15 -26 -40 -13 -47 -26 -45 -36 5 -3 20 -12 35
-20 35 -8 0 -14 -3 -14 -7z"/>
<path d="M3056 5894 c-39 -38 -4 -109 50 -102 40 4 43 26 3 25 -18 -1 -34 4
-36 11 -3 8 8 12 36 12 44 0 51 12 31 51 -13 23 -62 26 -84 3z m62 -21 c2 -8
-6 -13 -22 -13 -25 0 -33 10 -19 24 10 10 36 3 41 -11z"/>
<path d="M3470 5891 c-25 -48 -1 -101 45 -101 32 0 55 25 55 60 0 16 -7 36
-16 44 -22 23 -71 20 -84 -3z m65 -41 c0 -28 -4 -35 -20 -35 -13 0 -21 8 -23
23 -5 34 5 54 25 50 13 -2 18 -13 18 -38z"/>
<path d="M3734 5893 c2 -10 8 -37 11 -60 8 -54 30 -56 40 -5 l8 37 10 -37 c14
-57 33 -47 44 22 8 48 7 60 -4 60 -7 0 -13 -9 -13 -19 0 -11 -3 -28 -7 -38 -6
-14 -9 -11 -13 16 -6 40 -30 55 -30 19 0 -12 -5 -30 -10 -38 -7 -11 -10 -5
-10 23 0 27 -4 37 -16 37 -10 0 -14 -6 -10 -17z"/>
<path d="M3900 5849 c0 -45 3 -59 14 -59 10 0 16 14 18 43 3 38 6 42 31 45 48
6 33 31 -18 30 l-45 -1 0 -58z"/>
<path d="M4030 5901 c0 -5 9 -11 20 -14 15 -4 20 -14 20 -37 0 -23 -5 -33 -20
-37 -37 -10 -20 -23 30 -23 50 0 67 13 30 23 -16 4 -20 14 -20 51 0 44 -1 46
-30 46 -16 0 -30 -4 -30 -9z"/>
<path d="M4314 5885 c-33 -50 11 -106 70 -91 36 9 34 29 -2 21 -20 -4 -33 -1
-42 10 -11 13 -7 15 29 15 36 0 41 3 41 23 0 51 -67 66 -96 22z m70 -10 c4
-11 -2 -15 -26 -15 -26 0 -29 2 -18 15 7 8 18 15 25 15 7 0 15 -7 19 -15z"/>
<path d="M4874 5885 c-33 -50 11 -106 70 -91 36 9 34 29 -2 21 -20 -4 -33 -1
-42 10 -11 13 -7 15 29 15 36 0 41 3 41 23 0 51 -67 66 -96 22z m70 -10 c4
-11 -2 -15 -26 -15 -26 0 -29 2 -18 15 7 8 18 15 25 15 7 0 15 -7 19 -15z"/>
<path d="M5700 5905 c0 -4 7 -19 15 -35 34 -66 36 -78 13 -100 -24 -22 -19
-35 9 -26 12 4 32 35 51 79 36 81 37 87 19 87 -8 0 -20 -19 -28 -42 l-13 -41
-19 41 c-10 23 -24 42 -32 42 -8 0 -15 -2 -15 -5z"/>
<path d="M5862 5898 c-17 -17 -15 -74 4 -92 33 -33 94 -7 94 40 0 50 -65 85
-98 52z m66 -38 c3 -33 -12 -55 -32 -47 -16 6 -23 57 -9 71 14 14 38 0 41 -24z"/>
<path d="M5990 5869 c0 -63 12 -77 65 -77 l45 1 0 59 c0 44 -3 58 -14 58 -11
0 -16 -14 -18 -47 -3 -40 -6 -48 -23 -48 -17 0 -20 8 -23 48 -2 33 -7 47 -18
47 -10 0 -14 -12 -14 -41z"/>
<path d="M6264 5881 c3 -17 9 -44 12 -61 7 -35 34 -41 34 -7 0 12 5 29 10 37
8 12 10 10 10 -10 0 -33 16 -58 29 -45 14 15 26 115 13 115 -5 0 -13 -17 -17
-37 -8 -39 -9 -38 -19 10 -9 38 -22 34 -32 -10 l-8 -38 -5 34 c-3 19 -12 36
-20 39 -10 3 -12 -3 -7 -27z"/>
<path d="M6419 5894 c-11 -14 -9 -15 24 -9 30 6 37 4 37 -9 0 -10 -9 -16 -22
-16 -34 0 -50 -15 -46 -41 3 -21 8 -24 51 -25 l47 -1 0 47 c0 25 -5 51 -12 58
-17 17 -63 15 -79 -4z m61 -59 c0 -16 -27 -32 -37 -22 -3 4 -3 13 0 22 8 20
37 20 37 0z"/>
<path d="M6550 5849 c0 -45 3 -59 14 -59 11 0 16 14 18 48 3 39 6 47 23 47 17
0 20 -8 23 -47 2 -34 7 -48 18 -48 18 0 20 93 1 108 -7 6 -32 11 -55 10 l-42
0 0 -59z"/>
<path d="M7120 5891 c-25 -48 -1 -101 45 -101 32 0 55 25 55 60 0 16 -7 36
-16 44 -22 23 -71 20 -84 -3z m65 -41 c0 -28 -4 -35 -20 -35 -13 0 -21 8 -23
23 -5 34 5 54 25 50 13 -2 18 -13 18 -38z"/>
<path d="M7406 5888 c-9 -12 -16 -29 -16 -38 0 -26 30 -60 54 -60 27 0 64 25
53 36 -4 5 -17 3 -28 -4 -36 -23 -64 19 -39 58 7 12 12 12 34 0 30 -16 45 -7
26 15 -19 23 -66 19 -84 -7z"/>
<path d="M7546 5888 c-9 -12 -16 -29 -16 -38 0 -29 30 -60 59 -60 37 0 51 17
51 60 0 20 -5 41 -12 48 -20 20 -65 14 -82 -10z m64 -18 c11 -20 -1 -60 -18
-60 -24 0 -43 55 -25 73 12 13 32 7 43 -13z"/>
<path d="M7678 5848 c4 -70 20 -77 24 -10 3 40 6 47 26 50 20 3 22 0 22 -47 0
-39 4 -51 15 -51 11 0 15 12 15 48 0 26 -4 52 -8 59 -4 6 -27 11 -52 11 l-45
-1 3 -59z"/>
<path d="M7812 5902 c2 -4 12 -31 22 -60 11 -29 26 -52 33 -52 12 0 37 49 49
97 9 33 -14 29 -27 -4 -5 -16 -12 -35 -15 -43 -4 -10 -11 0 -21 28 -8 24 -21
42 -30 42 -8 0 -13 -4 -11 -8z"/>
<path d="M7964 5885 c-33 -50 11 -106 70 -91 36 9 34 29 -2 21 -20 -4 -33 -1
-42 10 -11 13 -7 15 29 15 36 0 41 3 41 23 0 51 -67 66 -96 22z m70 -10 c4
-11 -2 -15 -26 -15 -26 0 -29 2 -18 15 7 8 18 15 25 15 7 0 15 -7 19 -15z"/>
<path d="M8110 5848 c0 -44 4 -58 14 -58 10 0 16 14 18 43 3 38 6 42 31 45 47
6 33 30 -18 30 l-45 -1 0 -59z"/>
<path d="M8665 5887 c-30 -46 0 -101 52 -95 66 7 63 110 -4 116 -25 2 -35 -2
-48 -21z m63 -9 c16 -16 15 -30 -2 -53 -12 -16 -16 -17 -30 -6 -9 7 -16 21
-16 30 0 17 18 41 30 41 3 0 11 -5 18 -12z"/>
<path d="M3970 5125 c0 -42 4 -75 10 -75 5 0 9 15 8 33 -1 51 1 57 22 57 19 0
24 -10 33 -70 3 -14 5 -2 6 26 1 54 -11 70 -44 58 -11 -5 -15 1 -15 20 0 14
-4 26 -10 26 -6 0 -10 -32 -10 -75z"/>
<path d="M4930 5128 l0 -73 29 -2 c35 -2 54 17 54 54 0 29 -27 55 -49 46 -10
-4 -14 3 -14 21 0 14 -4 26 -10 26 -6 0 -10 -31 -10 -72z m66 -12 c7 -31 -1
-46 -27 -46 -14 0 -19 7 -19 28 0 48 35 61 46 18z"/>
<path d="M5830 5174 c0 -19 -4 -25 -15 -20 -17 6 -55 -26 -55 -47 0 -28 30
-56 60 -55 l30 1 0 74 c0 42 -4 73 -10 73 -5 0 -10 -12 -10 -26z m0 -69 c0
-28 -4 -35 -19 -35 -10 0 -22 7 -25 16 -10 26 3 54 25 54 15 0 19 -7 19 -35z"/>
<path d="M4626 5179 c-3 -8 -15 -40 -27 -72 -22 -62 -20 -92 4 -36 25 60 39
110 33 116 -3 3 -8 0 -10 -8z"/>
<path d="M4732 5138 c-29 -80 -36 -105 -24 -93 14 14 56 134 49 141 -3 3 -14
-19 -25 -48z"/>
<path d="M4102 5160 c-7 -12 -8 -20 -2 -20 5 0 10 -15 10 -33 0 -18 5 -38 12
-45 15 -15 48 -16 48 -2 0 6 -9 10 -20 10 -16 0 -20 7 -20 34 0 28 4 35 23 39
l22 4 -22 2 c-13 0 -23 8 -23 16 0 21 -13 19 -28 -5z"/>
<path d="M4230 5166 c0 -8 -6 -17 -12 -19 -10 -4 -10 -6 0 -6 6 -1 12 -14 12
-30 0 -16 3 -36 6 -45 7 -17 54 -22 54 -6 0 6 -9 10 -20 10 -16 0 -20 7 -20
34 0 28 4 35 23 39 l22 4 -22 2 c-13 0 -23 8 -23 16 0 8 -4 15 -10 15 -5 0
-10 -6 -10 -14z"/>
<path d="M4480 5146 c0 -9 7 -16 16 -16 17 0 14 22 -4 28 -7 2 -12 -3 -12 -12z"/>
<path d="M5064 5145 c-18 -14 -17 -14 14 -9 25 5 32 3 32 -9 0 -10 -11 -17
-27 -19 -22 -2 -28 -8 -28 -28 0 -22 5 -25 38 -27 l37 -1 0 44 c0 33 -5 46
-19 54 -25 13 -23 13 -47 -5z m46 -59 c0 -8 -6 -16 -13 -19 -19 -7 -41 8 -33
22 10 16 46 14 46 -3z"/>
<path d="M5221 5151 c-8 -5 -20 -7 -28 -4 -10 4 -13 -7 -13 -46 0 -59 17 -69
22 -13 2 27 9 40 26 47 12 5 22 13 22 17 0 10 -12 10 -29 -1z"/>
<path d="M5340 5150 c-7 -4 -19 -6 -27 -3 -10 4 -13 -7 -13 -46 0 -59 17 -70
22 -14 2 28 9 41 26 49 13 7 20 14 15 17 -5 3 -15 2 -23 -3z"/>
<path d="M5432 5153 c-7 -3 -18 -16 -23 -30 -13 -34 12 -73 46 -73 37 0 40 18
3 22 -45 4 -42 22 5 26 42 4 46 13 17 42 -21 21 -26 22 -48 13z m46 -30 c2 -8
-6 -13 -22 -13 -25 0 -33 10 -19 24 10 10 36 3 41 -11z"/>
<path d="M5580 5150 c-7 -4 -19 -6 -27 -3 -10 4 -13 -7 -13 -46 0 -59 17 -70
22 -14 2 28 9 41 26 49 13 7 20 14 15 17 -5 3 -15 2 -23 -3z"/>
<path d="M5663 5145 c-17 -13 -16 -14 11 -12 38 3 46 -21 9 -25 -22 -2 -28 -8
-28 -28 0 -22 5 -25 38 -27 l38 -1 -3 45 c-2 36 -8 47 -25 54 -13 5 -28 3 -40
-6z m47 -59 c0 -19 -26 -27 -39 -12 -13 15 -4 26 21 26 10 0 18 -6 18 -14z"/>
<path d="M5912 5153 c-7 -3 -18 -16 -23 -30 -13 -34 12 -73 46 -73 37 0 40 18
3 22 -45 4 -42 22 5 26 42 4 46 13 17 42 -21 21 -26 22 -48 13z m46 -30 c2 -9
-7 -13 -28 -13 -28 0 -31 2 -20 15 15 18 41 16 48 -2z"/>
<path d="M6268 5149 c-21 -12 -24 -69 -6 -87 16 -16 43 -15 58 3 11 13 8 14
-18 9 -24 -5 -31 -2 -36 14 -4 10 -4 27 0 36 7 19 40 22 47 4 2 -7 8 -9 13 -5
5 5 1 15 -10 23 -23 16 -25 17 -48 3z"/>
<path d="M6380 5140 c-24 -24 -25 -38 -4 -68 20 -29 50 -28 69 2 18 27 7 69
-20 80 -23 8 -23 8 -45 -14z m56 -24 c7 -31 -1 -46 -26 -46 -25 0 -33 15 -26
46 4 15 14 24 26 24 12 0 22 -9 26 -24z"/>
<path d="M6518 5152 l-38 -3 0 -50 c0 -27 5 -49 10 -49 6 0 10 20 10 45 0 25
5 45 10 45 6 0 10 -20 10 -45 0 -25 5 -45 10 -45 6 0 10 20 10 45 0 25 5 45
10 45 6 0 10 -20 10 -45 0 -25 5 -45 10 -45 15 0 12 86 -2 96 -7 5 -30 8 -50
6z"/>
<path d="M4330 5079 c0 -44 4 -68 10 -64 6 3 10 14 10 25 0 13 5 17 19 13 29
-7 55 36 42 71 -9 21 -17 26 -46 26 l-35 0 0 -71z m65 42 c8 -26 -4 -51 -25
-51 -21 0 -28 15 -22 47 5 28 38 31 47 4z"/>
<path d="M4828 5143 c18 -4 22 -11 22 -39 0 -27 -4 -34 -20 -34 -11 0 -20 -4
-20 -10 0 -5 20 -10 45 -10 25 0 45 5 45 10 0 6 -9 10 -20 10 -17 0 -20 7 -20
40 0 37 -2 40 -27 39 -24 -2 -25 -2 -5 -6z"/>
<path d="M6010 5141 c0 -19 32 -91 40 -91 8 0 40 72 40 91 0 21 -19 -2 -25
-31 -4 -17 -10 -30 -15 -30 -5 0 -11 13 -15 30 -6 29 -25 52 -25 31z"/>
<path d="M4486 5073 c-11 -11 -6 -23 9 -23 8 0 15 4 15 9 0 13 -16 22 -24 14z"/>
<path d="M6160 5065 c0 -8 5 -15 10 -15 6 0 10 7 10 15 0 8 -4 15 -10 15 -5 0
-10 -7 -10 -15z"/>
<path d="M4045 4495 c-53 -19 -111 -82 -125 -136 -7 -25 -10 -85 -8 -139 5
-123 31 -175 110 -214 l52 -26 1196 0 1196 0 50 25 c83 42 114 106 114 240 0
100 -13 146 -52 191 -66 75 44 69 -1293 71 -1017 2 -1206 0 -1240 -12z m356
-185 c10 -6 19 -17 19 -25 0 -18 -27 -20 -32 -3 -3 7 -12 9 -22 5 -24 -10 -19
-90 7 -95 10 -2 17 3 17 12 0 9 -4 16 -10 16 -22 0 -8 26 15 28 22 2 25 -2 25
-33 0 -29 -5 -37 -26 -46 -20 -7 -32 -6 -50 6 -36 23 -37 98 -2 128 24 20 32
21 59 7z m127 1 c28 -3 9 -21 -23 -21 -24 0 -35 -5 -35 -15 0 -15 10 -19 43
-16 9 1 17 -4 17 -13 0 -11 -9 -16 -30 -16 -23 0 -30 -4 -30 -20 0 -16 7 -20
35 -20 19 0 35 -4 35 -10 0 -5 -22 -10 -50 -10 l-50 0 0 68 c0 38 2 71 4 73 4
4 50 4 84 0z m82 -39 l19 -37 1 38 c0 26 4 37 15 37 12 0 15 -14 15 -70 0 -82
-17 -93 -49 -32 l-20 37 -1 -37 c0 -27 -4 -38 -15 -38 -12 0 -15 14 -15 68 0
95 13 103 50 34z m170 31 c0 -8 -13 -13 -35 -13 -24 0 -35 -5 -35 -15 0 -15
10 -19 43 -16 9 1 17 -4 17 -13 0 -11 -9 -16 -30 -16 -23 0 -30 -4 -30 -20 0
-16 7 -20 35 -20 19 0 35 -4 35 -10 0 -5 -22 -10 -50 -10 l-50 0 0 68 c0 38 2
71 6 74 3 3 25 5 50 5 30 0 44 -5 44 -14z m94 7 c20 -7 26 -17 26 -39 0 -16
-4 -32 -10 -36 -10 -6 7 -55 20 -55 3 0 14 29 24 64 18 62 41 90 51 63 12 -32
45 -131 45 -134 0 -11 -32 0 -36 12 -4 8 -14 15 -24 15 -10 0 -20 -7 -24 -15
-3 -9 -18 -15 -39 -15 -26 0 -36 6 -45 25 -6 14 -16 25 -22 25 -5 0 -10 -11
-10 -25 0 -16 -6 -25 -15 -25 -12 0 -15 14 -15 68 0 38 3 72 7 75 9 10 38 9
67 -3z m274 -7 c2 -8 -5 -13 -17 -13 -19 0 -21 -6 -21 -60 0 -53 -2 -60 -20
-60 -18 0 -20 7 -20 60 0 53 -2 60 -20 60 -20 0 -26 11 -13 23 11 12 106 3
111 -10z m112 0 c0 -8 -13 -13 -35 -13 -24 0 -35 -5 -35 -15 0 -15 10 -19 43
-16 9 1 17 -4 17 -13 0 -11 -9 -16 -30 -16 -23 0 -30 -4 -30 -20 0 -16 7 -20
35 -20 19 0 35 -4 35 -10 0 -5 -22 -10 -50 -10 l-50 0 0 69 c0 76 3 80 68 78
19 -1 32 -6 32 -14z m223 2 c22 -21 30 -67 17 -100 -8 -22 -8 -30 2 -36 27
-17 -5 -22 -45 -8 -27 10 -47 25 -55 43 -23 47 5 116 48 116 10 0 25 -7 33
-15z m111 5 c20 -7 26 -17 26 -39 0 -16 -4 -33 -10 -36 -6 -4 -4 -17 5 -36 15
-27 14 -29 -3 -29 -10 0 -24 11 -30 25 -6 14 -16 25 -22 25 -5 0 -10 -11 -10
-25 0 -16 -6 -25 -15 -25 -12 0 -15 14 -15 68 0 38 3 72 7 75 9 10 38 9 67 -3z
m250 -3 c10 -7 17 -22 15 -32 -4 -18 -5 -18 -22 -1 -27 27 -47 13 -47 -33 0
-45 17 -63 35 -38 7 10 17 17 24 17 20 0 12 -29 -13 -45 -46 -30 -95 23 -81
87 12 53 51 73 89 45z m121 -7 c27 -29 24 -99 -5 -122 -28 -23 -32 -22 -61 1
-20 16 -24 28 -23 67 1 69 49 98 89 54z m104 7 c30 -15 43 -59 30 -95 -13 -34
-26 -42 -66 -42 l-33 0 0 68 c0 38 3 72 7 75 10 10 35 8 62 -6z m151 -4 c0 -8
-12 -13 -35 -13 -24 0 -35 -5 -35 -15 0 -15 10 -19 43 -16 9 1 17 -4 17 -13 0
-11 -9 -16 -30 -16 -23 0 -30 -4 -30 -20 0 -16 7 -20 35 -20 19 0 35 -4 35
-10 0 -5 -22 -10 -50 -10 l-50 0 0 69 c0 76 2 78 63 78 24 0 37 -5 37 -14z"/>
<path d="M4830 4270 c0 -13 7 -20 20 -20 13 0 20 7 20 20 0 13 -7 20 -20 20
-13 0 -20 -7 -20 -20z"/>
<path d="M4965 4240 c-3 -5 -1 -10 4 -10 6 0 11 5 11 10 0 6 -2 10 -4 10 -3 0
-8 -4 -11 -10z"/>
<path d="M5434 4277 c-10 -28 0 -82 16 -82 11 0 15 12 15 44 0 44 -19 68 -31
38z"/>
<path d="M5550 4270 c0 -13 7 -20 20 -20 13 0 20 7 20 20 0 13 -7 20 -20 20
-13 0 -20 -7 -20 -20z"/>
<path d="M5914 4277 c-10 -28 0 -82 16 -82 11 0 15 12 15 44 0 44 -19 68 -31
38z"/>
<path d="M6030 4241 c0 -28 4 -51 9 -51 33 0 42 92 9 98 -15 3 -18 -4 -18 -47z"/>
<path d="M3672 3243 l3 -338 330 0 330 0 3 338 2 337 -335 0 -335 0 2 -337z
m570 30 c1 -230 1 -254 -1 -264 0 -3 -108 -5 -238 -5 l-238 1 -3 243 -2 242
240 0 240 0 2 -217z"/>
<path d="M3860 3251 c0 -109 3 -140 14 -144 18 -7 213 -8 248 -1 l27 5 -1 140
-2 139 -143 0 -143 0 0 -139z"/>
<path d="M4532 3538 l3 -43 48 -3 47 -3 0 45 0 46 -51 0 -50 0 3 -42z"/>
<path d="M4920 3535 l0 -45 -95 0 -95 0 0 -50 0 -50 -50 0 -50 0 0 -50 0 -50
-50 0 -50 0 0 -50 0 -50 -40 0 c-28 0 -40 -4 -40 -14 0 -8 -3 -21 -6 -29 -8
-21 20 -44 53 -43 26 2 28 6 31 44 l3 42 100 0 99 0 0 -40 c0 -34 3 -40 23
-41 12 -1 27 -2 32 -4 6 -1 18 -3 28 -3 15 -2 17 -14 17 -97 0 -69 3 -95 13
-96 6 -1 26 -2 42 -2 l30 -1 3 142 3 142 99 0 99 0 3 -42 c3 -42 3 -42 43 -44
22 -1 43 -2 47 -3 4 0 9 -45 10 -98 l3 -98 30 0 c54 -1 55 0 55 101 0 102 4
95 -60 98 l-25 1 -3 143 -3 142 96 0 95 0 0 50 0 50 100 0 100 0 0 -50 0 -50
-50 0 -50 0 0 -50 0 -50 50 0 50 0 0 49 0 50 43 3 42 3 3 48 3 47 43 0 c48 0
56 9 56 61 0 30 0 30 -52 27 l-53 -3 0 -40 c0 -40 0 -40 -42 -43 l-43 -3 0 45
0 46 -150 0 -150 0 0 -45 0 -45 -45 0 -45 0 0 -50 0 -50 -50 0 -50 0 0 95 0
95 -100 0 -100 0 0 -45z m100 -95 l0 -50 50 0 50 0 0 -50 0 -50 -50 0 -50 0 0
50 0 50 -50 0 -50 0 0 50 0 50 50 0 50 0 0 -50z m-190 -100 l0 -50 45 0 45 0
0 -51 0 -50 -42 3 -43 3 -3 47 -3 47 -47 3 -47 3 -3 48 -3 47 50 0 51 0 0 -50z"/>
<path d="M5898 3438 l-3 -143 -45 -3 c-24 -2 -47 -8 -51 -13 -4 -8 -5 -41 0
-81 1 -5 24 -8 51 -8 l50 0 0 -40 c0 -34 -4 -41 -24 -46 -14 -3 -34 -3 -44 1
-11 3 -23 1 -27 -5 -4 -6 -6 -98 -5 -204 0 -106 -2 -212 -6 -234 -7 -42 -7
-42 -50 -42 -24 0 -44 -4 -44 -10 0 -5 0 -157 0 -337 l-1 -328 48 -5 48 -5 0
-45 0 -45 -50 -5 -50 -5 0 -45 0 -45 100 0 100 0 3 48 3 48 47 -3 47 -3 3 -47
3 -48 39 0 39 0 3 -142 3 -142 48 -2 47 -2 0 94 0 94 49 0 50 0 3 -42 3 -43
48 -1 47 -1 0 44 0 43 -50 0 -50 0 0 50 0 50 -100 0 -100 0 0 50 0 50 149 0
150 0 3 -47 3 -48 43 -3 42 -3 0 100 0 101 50 0 50 0 0 -100 0 -100 50 0 50 0
0 -50 0 -50 -101 0 -100 0 3 -42 3 -43 45 0 45 0 3 -47 c2 -28 8 -49 15 -49 7
-1 28 -2 47 -3 34 -1 35 -2 38 -48 l3 -47 83 -3 c124 -5 116 -12 116 101 l0
97 -37 -1 c-56 -2 -63 3 -63 46 l0 39 50 0 50 0 0 50 0 50 -100 0 -100 0 0
100 0 100 100 0 100 0 0 95 0 95 -50 0 -50 0 0 -50 0 -50 -50 0 -50 0 0 -45 0
-45 -50 0 -50 0 0 95 0 95 50 0 50 0 0 100 0 100 -50 0 -50 0 0 -100 0 -100
-95 0 -95 0 0 -96 0 -95 -47 3 -48 3 -3 143 -3 142 96 0 95 0 0 50 0 50 -46 0
-45 0 3 43 c3 42 3 42 46 45 l42 3 0 50 0 49 100 0 100 0 0 -50 0 -50 100 0
100 0 0 150 0 150 -50 0 -50 0 0 -50 0 -50 -50 0 -50 0 0 50 0 50 -100 0 -100
0 0 39 c0 41 -9 50 -50 45 -14 -1 -28 -3 -32 -3 -5 -1 -8 -19 -8 -41 l0 -40
45 0 45 0 0 -100 0 -100 -95 0 -95 0 0 143 0 143 -87 -2 c-49 -1 -94 -3 -100
-3 -10 -1 -13 -26 -13 -91 l0 -90 50 0 50 0 0 -50 0 -50 -140 0 -141 0 3 142
3 141 45 1 45 1 3 52 3 53 -50 -3 -51 -3 0 101 0 102 50 -1 49 -1 3 -99 3
-100 38 -2 37 -3 0 103 0 103 -37 0 -38 -1 -3 92 -3 92 41 0 40 0 0 145 0 145
-90 0 -89 0 -3 -142z m382 -1113 l0 -95 -50 0 -50 0 0 -50 0 -50 -191 2 -191
3 0 80 c0 44 1 88 1 98 1 16 11 17 99 15 l97 -3 0 -48 0 -47 43 0 42 0 0 50 0
50 50 0 50 0 0 38 c0 21 3 42 7 45 3 4 26 7 50 7 l43 0 0 -95z m-200 -390 l0
-95 -42 0 -43 0 3 95 3 95 40 0 39 0 0 -95z"/>
<path d="M6182 3243 l3 -338 343 -1 342 -2 0 339 0 339 -345 0 -345 0 2 -337z
m588 8 c0 -230 -1 -239 -20 -244 -11 -3 -120 -4 -243 -4 l-222 2 -3 243 -2
242 245 0 245 0 0 -239z"/>
<path d="M6382 3248 l3 -143 140 0 140 0 3 143 3 142 -146 0 -146 0 3 -142z"/>
<path d="M5410 3150 c0 -33 4 -40 23 -45 12 -3 31 -3 42 -1 11 3 23 5 28 5 4
1 7 19 7 41 l0 40 -50 0 -50 0 0 -40z"/>
<path d="M4530 3059 c0 -32 -4 -49 -12 -50 -7 -1 -20 -2 -28 -3 -8 -2 -23 -3
-32 -4 -16 -2 -18 -14 -18 -100 l0 -98 -77 -1 c-126 -1 -118 2 -119 -43 l-1
-40 47 0 48 0 4 -39 c2 -22 2 -45 0 -50 -5 -16 -92 -14 -93 2 -1 6 -2 23 -4
37 -1 14 -2 31 -3 38 -2 8 -27 12 -91 12 l-90 0 -3 41 -3 41 -95 2 -95 1 -3
-43 -3 -42 -50 0 -49 0 0 -50 0 -50 -45 0 -45 0 0 -145 0 -145 45 0 45 0 0 45
0 45 151 0 150 0 -3 48 -3 47 -47 3 -47 3 -3 47 -3 47 -47 3 -48 3 0 50 0 49
100 0 100 0 0 -50 0 -50 40 0 40 0 1 -127 c0 -71 2 -136 4 -145 3 -15 -4 -18
-41 -18 l-44 0 0 -50 0 -50 -50 0 -50 0 0 50 0 50 -50 0 -50 0 0 -50 0 -50
-95 0 -95 0 0 -50 0 -50 45 0 45 0 0 -50 0 -50 -45 0 -45 0 0 -95 0 -95 45 0
45 0 0 -50 0 -50 50 0 50 0 0 -50 0 -50 146 0 145 0 -2 -27 c-5 -66 -8 -64 93
-61 90 2 92 2 98 -22 3 -14 5 -35 4 -48 -1 -24 1 -24 60 -26 l39 -1 0 -49 0
-50 -39 -2 c-58 -2 -65 3 -62 47 1 21 -1 41 -5 45 -9 9 -320 18 -352 10 -26
-7 -26 -7 -23 -103 l3 -97 138 3 137 3 1 -29 c1 -15 1 -36 0 -45 -2 -15 6 -18
48 -18 28 0 51 3 52 8 1 4 2 22 4 40 3 31 2 32 -39 32 -56 0 -63 8 -58 60 l4
45 39 -1 c21 -1 43 -2 48 -3 5 0 7 -19 4 -42 -4 -24 -2 -44 5 -48 5 -3 48 -6
94 -5 l83 0 5 100 5 99 48 3 47 3 0 -100 0 -100 48 -3 47 -3 3 -43 3 -42 -50
0 -50 0 -3 42 -3 43 -45 0 -45 0 -3 -42 c-3 -42 -3 -42 -45 -45 l-42 -3 0 -95
0 -95 43 -3 42 -3 0 -94 0 -94 -42 -3 -43 -3 -3 -75 c-4 -109 0 -120 48 -120
l40 0 0 -50 0 -50 50 0 50 0 0 -50 0 -50 50 0 50 0 0 50 0 50 -50 0 -50 0 0
50 0 50 -50 0 -50 0 0 100 0 100 50 0 50 0 0 -50 0 -50 50 0 50 0 0 -50 0 -50
95 0 95 0 0 -100 0 -100 100 0 100 0 0 50 0 50 -50 0 -50 0 0 100 0 100 50 0
50 0 0 -50 0 -50 50 0 50 0 0 -100 0 -100 95 0 95 0 0 50 0 50 -50 0 -50 0 0
50 0 50 -45 0 -45 0 0 50 0 50 45 0 45 0 0 50 0 50 50 0 50 0 0 -50 0 -50 50
0 50 0 0 -50 0 -50 50 0 50 0 0 49 0 50 43 3 42 3 2 85 c1 47 2 88 3 93 0 4
45 7 100 7 l100 0 0 -144 0 -145 48 -3 47 -3 3 -47 3 -48 140 0 139 0 0 -50 0
-50 145 0 145 0 0 100 0 100 50 0 50 0 0 50 0 50 -100 0 -100 0 0 -100 0 -100
-95 0 -95 0 0 100 0 100 50 0 50 0 0 50 0 50 145 0 145 0 0 45 0 45 50 0 50 0
0 50 0 50 -50 0 -50 0 0 100 0 100 50 0 50 0 0 39 c0 43 -9 49 -67 43 -31 -4
-33 -7 -33 -43 l0 -39 -50 0 -49 0 -3 93 -3 92 -30 1 c-65 3 -64 1 -67 52 l-3
47 -40 0 -40 0 -3 -98 c-2 -67 -6 -97 -15 -98 -7 0 -50 -1 -97 -2 l-85 -2 0
50 0 50 48 -3 48 -3 -3 53 -3 53 -45 0 -45 0 -5 -50 -5 -50 -135 0 -135 0 -5
50 -5 50 -95 3 c-52 2 -97 8 -101 13 -3 5 -3 27 0 47 6 36 7 37 48 35 36 -1
42 2 48 24 11 47 -2 63 -51 63 -47 0 -44 3 -48 -62 -1 -19 -7 -22 -43 -23
l-43 -1 0 238 0 238 -50 0 -50 0 0 50 0 50 -50 0 -50 0 0 100 0 100 101 0 100
0 -3 43 -3 42 -47 3 -48 3 0 50 0 49 51 0 50 0 -3 48 -3 47 -98 3 -98 3 3 92
3 92 47 0 48 0 0 -42 0 -43 49 0 50 0 3 43 c3 44 2 43 66 46 l23 1 -3 145 c-2
80 -6 145 -10 145 -5 0 -46 0 -93 0 l-85 0 0 -51 c0 -49 1 -50 28 -48 75 6 72
10 72 -102 l0 -100 -47 3 -48 3 -5 100 -5 99 -36 2 c-20 1 -41 -1 -47 -5 -7
-4 -12 -45 -14 -101 l-3 -94 -45 -1 -45 0 -3 -142 -3 -142 48 -3 48 -3 3 -47
3 -48 -95 0 -96 0 0 -45 0 -45 -50 0 -50 0 0 95 0 95 50 0 50 0 0 50 0 50 -50
0 -50 0 0 94 0 94 48 -1 47 -2 0 50 0 50 -35 1 c-19 1 -41 2 -47 3 -8 1 -13
17 -13 45 l0 44 -42 4 c-24 3 -46 3 -50 1 -5 -2 -8 -24 -8 -49 0 -47 1 -48 73
-47 27 1 28 0 25 -51 l-3 -51 -85 -2 c-47 -1 -91 -2 -97 -2 -10 -1 -13 -26
-13 -91 l0 -90 -45 0 -45 0 0 94 0 94 -42 -3 c-24 -1 -46 -3 -50 -4 -5 0 -8
-19 -8 -41 l0 -40 -51 0 -50 0 3 43 3 42 48 -2 47 -3 0 100 c0 73 -3 100 -12
101 -87 6 -83 8 -86 -43 -3 -45 -5 -48 -33 -49 -16 -1 -37 -2 -46 -3 -15 -1
-19 8 -21 47 -3 51 -3 51 66 49 32 -1 32 -1 32 48 0 28 -3 50 -7 51 -5 0 -27
2 -50 3 l-43 3 0 -48z m100 -389 l0 -50 50 0 50 0 0 -50 0 -50 50 0 50 0 0
-95 0 -95 45 0 45 0 0 45 0 45 50 0 50 0 0 -45 0 -45 -50 0 -50 0 0 -50 0 -50
150 0 150 0 0 50 0 50 45 0 45 0 0 -195 0 -195 50 0 50 0 0 -50 0 -50 -50 0
-50 0 0 50 0 50 -45 0 -45 0 0 -100 0 -100 45 0 45 0 0 -50 0 -50 -45 0 -45 0
0 -40 c0 -25 5 -41 13 -42 16 -1 49 -5 65 -7 8 -1 12 -18 12 -51 l0 -50 -82 4
c-46 2 -89 1 -95 -1 -8 -3 -13 -23 -13 -49 0 -35 4 -44 18 -45 9 -1 31 -2 47
-3 28 -1 30 -4 35 -51 l5 -50 40 0 40 0 5 99 5 100 45 1 45 1 5 50 c5 53 3 52
88 45 8 -1 12 -18 12 -49 l0 -49 48 1 47 1 3 -47 3 -47 -48 -3 -48 -3 -3 -47
-3 -48 -42 -1 c-23 -1 -45 -1 -49 0 -5 0 -8 -42 -8 -94 l0 -95 146 0 145 0 -3
48 -3 47 -42 3 -43 3 0 42 0 42 40 0 c22 0 40 -4 41 -10 0 -5 2 -23 2 -40 l2
-30 100 -5 100 -5 3 -47 3 -47 47 -3 47 -3 3 -97 3 -98 -51 0 -50 0 0 101 0
100 -52 -3 c-45 -3 -53 -6 -54 -23 0 -11 -1 -32 -2 -47 l-2 -28 -90 0 -90 0 0
-95 0 -95 -100 0 -100 0 0 145 0 145 -50 0 -50 0 0 50 0 50 -45 0 -45 0 0
-150 0 -150 45 0 45 0 0 -45 0 -45 -45 0 -45 0 0 45 0 45 -50 0 -50 0 0 -45 0
-45 -50 0 -50 0 0 45 0 45 -50 0 -50 0 0 -95 0 -95 -95 0 -95 0 0 50 0 50 -51
0 -50 0 3 42 3 43 48 3 47 3 0 50 0 49 -100 0 -100 0 0 100 0 100 50 0 50 0 0
-50 0 -50 50 0 50 0 0 -50 0 -50 145 0 145 0 0 50 0 50 50 0 50 0 0 50 0 50
-101 0 -100 0 3 42 c3 41 4 42 38 44 19 1 41 2 48 3 9 1 12 15 10 49 -3 42 -5
47 -28 48 -78 3 -71 -7 -68 102 l3 97 48 -2 47 -2 0 44 0 45 -50 0 -50 0 0
-43 0 -43 -92 1 -93 1 -3 42 -3 42 -49 0 -49 0 -3 -42 -3 -43 -90 2 -90 2 0
88 0 88 -50 0 c-55 0 -50 7 -54 -78 -1 -15 -9 -18 -48 -15 l-48 3 -1 48 -1 47
51 0 51 0 2 50 1 49 -51 3 -52 3 0 45 0 45 50 5 c50 5 50 5 48 40 0 19 -1 38
-2 43 -1 4 -21 7 -46 7 -25 0 -46 -3 -46 -7 -1 -5 -2 -24 -3 -43 -2 -34 -3
-35 -52 -40 l-49 -5 1 -47 1 -48 -93 0 -93 0 -3 -47 -3 -48 -47 -3 -48 -3 0
50 0 51 50 0 50 0 0 50 0 50 -50 0 -50 0 0 145 0 145 50 0 50 0 0 -50 0 -50
50 0 50 0 0 50 0 50 40 0 c25 0 41 5 41 13 1 6 2 28 3 47 l1 35 100 5 100 5 0
40 0 40 48 3 c26 2 47 7 48 13 0 5 1 23 1 39 0 17 -1 35 -1 40 -1 6 -24 10
-51 10 l-51 0 3 -47 3 -48 -50 -3 -50 -3 0 48 1 48 47 3 c27 2 47 8 48 15 1 7
2 28 3 47 1 35 2 35 52 40 l51 5 1 38 c0 20 1 42 1 47 1 6 38 10 91 10 l90 0
0 -50z m390 -100 l0 -50 -50 0 -50 0 0 50 0 50 50 0 50 0 0 -50z m-779 -747
c6 -80 7 -78 -44 -81 -26 -2 -48 1 -48 5 -4 24 -5 79 -2 86 2 4 24 7 49 7 35
0 44 -4 45 -17z m1269 -133 l0 -50 -50 0 -50 0 0 50 0 50 50 0 50 0 0 -50z
m-682 -240 c1 0 2 -45 2 -99 l0 -99 -27 0 c-74 1 -73 -1 -73 102 0 66 4 96 13
100 9 4 45 2 85 -4z m1552 -430 l0 -150 -150 0 -150 0 0 143 c0 79 3 147 7
150 3 4 71 7 150 7 l143 0 0 -150z m190 50 l0 -100 -50 0 -50 0 0 100 0 100
50 0 50 0 0 -100z m-490 -390 l0 -100 -40 0 -40 0 0 100 0 100 40 0 40 0 0
-100z m200 50 l0 -50 -50 0 -50 0 0 50 0 50 50 0 50 0 0 -50z"/>
<path d="M4449 2618 c-1 -2 -3 -24 -4 -50 l-2 -48 43 0 44 0 0 -50 0 -50 100
0 100 0 0 50 0 50 -50 0 -50 0 0 50 0 50 -90 0 c-49 0 -91 -1 -91 -2z"/>
<path d="M4345 2318 c-2 -7 -3 -29 -2 -48 2 -34 3 -35 46 -38 24 -2 48 1 53 6
5 5 6 27 2 50 -7 42 -7 42 -51 42 -26 0 -45 -5 -48 -12z"/>
<path d="M4143 2183 l3 -48 97 -3 c73 -2 97 0 98 10 1 7 2 30 3 51 l2 37 -103
0 -104 0 4 -47z"/>
<path d="M4530 2130 l0 -100 -39 0 c-29 0 -41 -5 -44 -17 -8 -27 -8 -115 -1
-145 6 -28 6 -28 95 -28 l89 0 0 -50 0 -50 195 0 195 0 0 -50 0 -50 100 0 100
0 0 50 0 50 -100 0 -100 0 0 50 0 50 50 0 50 0 0 50 0 50 50 0 50 0 0 95 0 95
-50 0 -50 0 0 -50 0 -50 -50 0 -50 0 0 -45 0 -46 -92 3 -93 3 -3 43 -3 42 45
0 46 0 0 100 0 100 -45 0 -45 0 0 -50 0 -50 -100 0 -100 0 0 50 0 50 -50 0
-50 0 0 -100z"/>
<path d="M4060 2080 l0 -50 -50 0 -50 0 0 -45 0 -45 95 0 95 0 -2 95 -2 95
-43 0 -43 0 0 -50z"/>
<path d="M5027 1553 c-4 -3 -7 -25 -7 -49 0 -36 3 -43 25 -48 14 -4 36 -4 50
0 22 5 25 12 25 49 0 40 -2 43 -31 49 -40 8 -54 8 -62 -1z"/>
<path d="M6187 1063 c-4 -3 -7 -26 -7 -50 l0 -43 50 0 50 0 0 50 0 50 -43 0
c-24 0 -47 -3 -50 -7z"/>
<path d="M5900 1595 l0 -44 43 3 c23 2 45 4 50 5 4 1 7 19 7 41 l0 40 -50 0
-50 0 0 -45z"/>
<path d="M3670 1508 l0 -53 133 2 c72 0 138 1 145 2 9 1 12 15 10 49 l-3 47
-142 3 -143 3 0 -53z"/>
<path d="M3766 1353 c-9 -9 -7 -93 2 -94 4 0 25 -2 47 -2 l40 -2 0 49 0 49
-42 3 c-22 1 -44 0 -47 -3z"/>
<path d="M3675 1251 c-3 -2 -5 -22 -5 -43 l0 -38 45 0 45 0 0 45 0 46 -40 -3
c-22 -1 -43 -4 -45 -7z"/>
<path d="M3670 725 l0 -345 335 0 c184 0 335 3 335 8 1 13 1 636 0 660 l0 22
-335 0 -335 0 0 -345z m574 -2 l1 -243 -242 0 -243 0 0 245 0 245 241 -2 242
-3 1 -242z"/>
<path d="M3860 725 l0 -146 143 3 142 3 0 140 0 140 -142 3 -143 3 0 -146z"/>
<path d="M5699 573 c-1 -5 -2 -26 -2 -48 l-2 -40 50 0 c45 0 50 2 53 24 2 12
1 34 -2 47 -6 21 -12 24 -51 24 -25 0 -45 -3 -46 -7z"/>
<path d="M6770 530 l0 -50 50 0 50 0 0 50 0 50 -50 0 -50 0 0 -50z"/>
<path d="M5510 430 l0 -50 50 0 50 0 0 50 0 50 -50 0 -50 0 0 -50z"/>
<path d="M5900 430 l0 -51 48 3 47 3 0 45 0 45 -47 3 -48 3 0 -51z"/>
</g>
</svg>
